<svg width="150" height="39" viewBox="0 0 150 39" fill="none" xmlns="http://www.w3.org/2000/svg">
<path d="M0 30.0054V2.369H10.9034C12.9905 2.369 14.7718 2.74234 16.2472 3.48903C17.7315 4.22671 18.8606 5.27477 19.6342 6.6332C20.4169 7.98263 20.8082 9.57046 20.8082 11.3967C20.8082 13.2319 20.4124 14.8108 19.6207 16.1332C18.8291 17.4466 17.6821 18.4542 16.1797 19.1559C14.6863 19.8576 12.8781 20.2085 10.755 20.2085H3.45455V15.5125H9.81037C10.9259 15.5125 11.8525 15.3595 12.5902 15.0537C13.3279 14.7478 13.8767 14.289 14.2365 13.6772C14.6054 13.0655 14.7898 12.3053 14.7898 11.3967C14.7898 10.4791 14.6054 9.70541 14.2365 9.07567C13.8767 8.44594 13.3234 7.96914 12.5767 7.64528C11.839 7.31242 10.9079 7.14599 9.78338 7.14599H5.84304V30.0054H0ZM14.9247 17.4287L21.7933 30.0054H15.343L8.62287 17.4287H14.9247Z" fill="#C32361"/>
<path d="M38.1214 21.1801V9.27809H43.87V30.0054H38.3509V26.2404H38.1349C37.6671 27.4549 36.889 28.431 35.8004 29.1687C34.7209 29.9064 33.4029 30.2752 31.8466 30.2752C30.4612 30.2752 29.2422 29.9604 28.1896 29.3306C27.1371 28.7009 26.3139 27.8058 25.7202 26.6453C25.1354 25.4848 24.8385 24.0948 24.8295 22.4755V9.27809H30.5781V21.45C30.5871 22.6734 30.9155 23.6405 31.5632 24.3512C32.2109 25.0619 33.0791 25.4173 34.1676 25.4173C34.8603 25.4173 35.5081 25.2599 36.1108 24.945C36.7135 24.6211 37.1993 24.1443 37.5682 23.5146C37.946 22.8849 38.1304 22.1067 38.1214 21.1801Z" fill="#C32361"/>
<path d="M54.2168 18.0224V30.0054H48.4682V9.27809H53.9469V12.935H54.1898C54.6486 11.7296 55.4178 10.776 56.4973 10.0743C57.5769 9.36355 58.8858 9.0082 60.4242 9.0082C61.8636 9.0082 63.1186 9.32307 64.1891 9.9528C65.2597 10.5825 66.0918 11.4822 66.6855 12.6517C67.2793 13.8122 67.5762 15.1976 67.5762 16.8079V30.0054H61.8276V17.8335C61.8366 16.565 61.5127 15.5754 60.856 14.8647C60.1993 14.145 59.2952 13.7852 58.1436 13.7852C57.37 13.7852 56.6863 13.9516 56.0925 14.2845C55.5078 14.6173 55.0489 15.1031 54.7161 15.7419C54.3922 16.3716 54.2258 17.1318 54.2168 18.0224Z" fill="#C32361"/>
<path d="M77.8555 18.0224V30.0054H72.1069V9.27809H77.5856V12.935H77.8285C78.2873 11.7296 79.0565 10.776 80.136 10.0743C81.2156 9.36355 82.5245 9.0082 84.0629 9.0082C85.5023 9.0082 86.7572 9.32307 87.8278 9.9528C88.8983 10.5825 89.7305 11.4822 90.3242 12.6517C90.918 13.8122 91.2148 15.1976 91.2148 16.8079V30.0054H85.4663V17.8335C85.4753 16.565 85.1514 15.5754 84.4947 14.8647C83.838 14.145 82.9338 13.7852 81.7823 13.7852C81.0086 13.7852 80.3249 13.9516 79.7312 14.2845C79.1464 14.6173 78.6876 15.1031 78.3548 15.7419C78.0309 16.3716 77.8645 17.1318 77.8555 18.0224Z" fill="#C32361"/>
<path d="M95.7456 30.0054V9.27809H101.494V30.0054H95.7456ZM98.6333 6.60621C97.7787 6.60621 97.0455 6.32283 96.4338 5.75607C95.831 5.18031 95.5297 4.4921 95.5297 3.69144C95.5297 2.89977 95.831 2.22056 96.4338 1.6538C97.0455 1.07804 97.7787 0.790161 98.6333 0.790161C99.488 0.790161 100.217 1.07804 100.819 1.6538C101.431 2.22056 101.737 2.89977 101.737 3.69144C101.737 4.4921 101.431 5.18031 100.819 5.75607C100.217 6.32283 99.488 6.60621 98.6333 6.60621Z" fill="#C32361"/>
<path d="M111.848 18.0224V30.0054H106.099V9.27809H111.578V12.935H111.821C112.279 11.7296 113.049 10.776 114.128 10.0743C115.208 9.36355 116.517 9.0082 118.055 9.0082C119.494 9.0082 120.749 9.32307 121.82 9.9528C122.891 10.5825 123.723 11.4822 124.316 12.6517C124.91 13.8122 125.207 15.1976 125.207 16.8079V30.0054H119.458V17.8335C119.467 16.565 119.144 15.5754 118.487 14.8647C117.83 14.145 116.926 13.7852 115.775 13.7852C115.001 13.7852 114.317 13.9516 113.723 14.2845C113.139 14.6173 112.68 15.1031 112.347 15.7419C112.023 16.3716 111.857 17.1318 111.848 18.0224Z" fill="#C32361"/>
<path d="M139.076 38.2099C137.214 38.2099 135.617 37.9535 134.285 37.4407C132.963 36.9369 131.91 36.2487 131.128 35.3761C130.345 34.5035 129.837 33.5229 129.603 32.4343L134.92 31.7191C135.082 32.133 135.338 32.5198 135.689 32.8797C136.04 33.2395 136.503 33.5274 137.079 33.7433C137.663 33.9682 138.374 34.0806 139.211 34.0806C140.461 34.0806 141.491 33.7748 142.301 33.163C143.12 32.5603 143.529 31.5482 143.529 30.1268V26.3349H143.286C143.034 26.9107 142.656 27.4549 142.153 27.9677C141.649 28.4805 141.001 28.8988 140.209 29.2227C139.418 29.5466 138.473 29.7085 137.376 29.7085C135.819 29.7085 134.402 29.3486 133.125 28.6289C131.856 27.9002 130.844 26.7892 130.089 25.2958C129.342 23.7935 128.969 21.8953 128.969 19.6012C128.969 17.2532 129.351 15.2921 130.116 13.7177C130.88 12.1434 131.897 10.9649 133.165 10.1822C134.443 9.39954 135.842 9.0082 137.362 9.0082C138.523 9.0082 139.494 9.20612 140.277 9.60195C141.059 9.98879 141.689 10.4746 142.166 11.0593C142.652 11.6351 143.025 12.2019 143.286 12.7596H143.502V9.27809H149.21V30.2078C149.21 31.971 148.778 33.4464 147.915 34.6339C147.051 35.8214 145.854 36.712 144.325 37.3058C142.805 37.9085 141.055 38.2099 139.076 38.2099ZM139.197 25.3903C140.124 25.3903 140.907 25.1609 141.545 24.7021C142.193 24.2343 142.688 23.5686 143.03 22.7049C143.381 21.8323 143.556 20.7887 143.556 19.5743C143.556 18.3598 143.385 17.3072 143.043 16.4166C142.701 15.517 142.207 14.8198 141.559 14.325C140.911 13.8302 140.124 13.5828 139.197 13.5828C138.253 13.5828 137.457 13.8392 136.809 14.352C136.161 14.8557 135.671 15.5574 135.338 16.4571C135.005 17.3567 134.839 18.3957 134.839 19.5743C134.839 20.7707 135.005 21.8053 135.338 22.6779C135.68 23.5416 136.17 24.2118 136.809 24.6886C137.457 25.1564 138.253 25.3903 139.197 25.3903Z" fill="#C32361"/>
</svg>
