<svg width="257" height="65" viewBox="0 0 257 65" fill="none" xmlns="http://www.w3.org/2000/svg">
<path d="M105.199 46H95.402V18.3636H105.28C108.06 18.3636 110.453 18.9169 112.459 20.0234C114.465 21.121 116.008 22.6998 117.087 24.7599C118.176 26.8201 118.72 29.285 118.72 32.1548C118.72 35.0336 118.176 37.5076 117.087 39.5767C116.008 41.6458 114.456 43.2337 112.432 44.3402C110.417 45.4467 108.006 46 105.199 46ZM101.245 40.9936H104.956C106.683 40.9936 108.136 40.6877 109.315 40.076C110.502 39.4553 111.393 38.4972 111.987 37.2017C112.589 35.8973 112.891 34.215 112.891 32.1548C112.891 30.1127 112.589 28.4439 111.987 27.1484C111.393 25.853 110.507 24.8994 109.328 24.2876C108.15 23.6759 106.697 23.37 104.969 23.37H101.245V40.9936ZM122.941 46V25.2727H128.514V28.8892H128.73C129.107 27.6027 129.742 26.6312 130.632 25.9744C131.523 25.3087 132.548 24.9759 133.709 24.9759C133.997 24.9759 134.307 24.9938 134.64 25.0298C134.973 25.0658 135.265 25.1153 135.517 25.1783V30.2791C135.247 30.1982 134.874 30.1262 134.397 30.0632C133.92 30.0002 133.484 29.9688 133.088 29.9688C132.243 29.9688 131.487 30.1532 130.821 30.522C130.164 30.8819 129.643 31.3857 129.256 32.0334C128.878 32.6811 128.689 33.4278 128.689 34.2734V46H122.941ZM138.489 46V25.2727H144.238V46H138.489ZM141.377 22.6009C140.522 22.6009 139.789 22.3175 139.178 21.7507C138.575 21.175 138.273 20.4867 138.273 19.6861C138.273 18.8944 138.575 18.2152 139.178 17.6484C139.789 17.0727 140.522 16.7848 141.377 16.7848C142.232 16.7848 142.96 17.0727 143.563 17.6484C144.175 18.2152 144.481 18.8944 144.481 19.6861C144.481 20.4867 144.175 21.175 143.563 21.7507C142.96 22.3175 142.232 22.6009 141.377 22.6009ZM148.951 46V18.3636H154.699V28.7543H154.875C155.127 28.1965 155.491 27.6297 155.968 27.054C156.454 26.4692 157.083 25.9834 157.857 25.5966C158.64 25.2008 159.611 25.0028 160.772 25.0028C162.283 25.0028 163.678 25.3987 164.955 26.1903C166.233 26.973 167.254 28.156 168.018 29.7393C168.783 31.3137 169.165 33.2884 169.165 35.6634C169.165 37.9754 168.792 39.9276 168.045 41.5199C167.308 43.1032 166.3 44.3042 165.023 45.1229C163.754 45.9325 162.333 46.3374 160.758 46.3374C159.643 46.3374 158.694 46.1529 157.911 45.7841C157.137 45.4152 156.503 44.9519 156.008 44.3942C155.514 43.8274 155.136 43.2562 154.875 42.6804H154.618V46H148.951ZM154.578 35.6364C154.578 36.8688 154.749 37.9439 155.091 38.8615C155.433 39.7791 155.927 40.4943 156.575 41.0071C157.223 41.5109 158.01 41.7628 158.937 41.7628C159.872 41.7628 160.664 41.5064 161.312 40.9936C161.959 40.4718 162.45 39.7521 162.782 38.8345C163.124 37.9079 163.295 36.8419 163.295 35.6364C163.295 34.4399 163.129 33.3873 162.796 32.4787C162.463 31.5701 161.973 30.8594 161.325 30.3466C160.677 29.8338 159.881 29.5774 158.937 29.5774C158.001 29.5774 157.209 29.8248 156.562 30.3196C155.923 30.8144 155.433 31.5161 155.091 32.4247C154.749 33.3333 154.578 34.4039 154.578 35.6364ZM173.109 46V18.3636H178.858V28.7543H179.033C179.285 28.1965 179.649 27.6297 180.126 27.054C180.612 26.4692 181.242 25.9834 182.015 25.5966C182.798 25.2008 183.77 25.0028 184.93 25.0028C186.441 25.0028 187.836 25.3987 189.113 26.1903C190.391 26.973 191.412 28.156 192.176 29.7393C192.941 31.3137 193.324 33.2884 193.324 35.6634C193.324 37.9754 192.95 39.9276 192.203 41.5199C191.466 43.1032 190.458 44.3042 189.181 45.1229C187.912 45.9325 186.491 46.3374 184.917 46.3374C183.801 46.3374 182.852 46.1529 182.069 45.7841C181.296 45.4152 180.661 44.9519 180.167 44.3942C179.672 43.8274 179.294 43.2562 179.033 42.6804H178.777V46H173.109ZM178.736 35.6364C178.736 36.8688 178.907 37.9439 179.249 38.8615C179.591 39.7791 180.086 40.4943 180.733 41.0071C181.381 41.5109 182.168 41.7628 183.095 41.7628C184.03 41.7628 184.822 41.5064 185.47 40.9936C186.118 40.4718 186.608 39.7521 186.941 38.8345C187.283 37.9079 187.453 36.8419 187.453 35.6364C187.453 34.4399 187.287 33.3873 186.954 32.4787C186.621 31.5701 186.131 30.8594 185.483 30.3466C184.836 29.8338 184.039 29.5774 183.095 29.5774C182.159 29.5774 181.368 29.8248 180.72 30.3196C180.081 30.8144 179.591 31.5161 179.249 32.4247C178.907 33.3333 178.736 34.4039 178.736 35.6364ZM197.267 46V18.3636H203.016V28.7543H203.191C203.443 28.1965 203.807 27.6297 204.284 27.054C204.77 26.4692 205.4 25.9834 206.173 25.5966C206.956 25.2008 207.928 25.0028 209.088 25.0028C210.6 25.0028 211.994 25.3987 213.271 26.1903C214.549 26.973 215.57 28.156 216.335 29.7393C217.099 31.3137 217.482 33.2884 217.482 35.6634C217.482 37.9754 217.108 39.9276 216.362 41.5199C215.624 43.1032 214.616 44.3042 213.339 45.1229C212.07 45.9325 210.649 46.3374 209.075 46.3374C207.959 46.3374 207.01 46.1529 206.227 45.7841C205.454 45.4152 204.82 44.9519 204.325 44.3942C203.83 43.8274 203.452 43.2562 203.191 42.6804H202.935V46H197.267ZM202.894 35.6364C202.894 36.8688 203.065 37.9439 203.407 38.8615C203.749 39.7791 204.244 40.4943 204.892 41.0071C205.539 41.5109 206.326 41.7628 207.253 41.7628C208.189 41.7628 208.98 41.5064 209.628 40.9936C210.276 40.4718 210.766 39.7521 211.099 38.8345C211.441 37.9079 211.612 36.8419 211.612 35.6364C211.612 34.4399 211.445 33.3873 211.112 32.4787C210.78 31.5701 210.289 30.8594 209.642 30.3466C208.994 29.8338 208.198 29.5774 207.253 29.5774C206.317 29.5774 205.526 29.8248 204.878 30.3196C204.239 30.8144 203.749 31.5161 203.407 32.4247C203.065 33.3333 202.894 34.4039 202.894 35.6364ZM227.066 18.3636V46H221.317V18.3636H227.066ZM241.117 46.4048C238.985 46.4048 237.15 45.973 235.611 45.1094C234.082 44.2367 232.903 43.0043 232.076 41.4119C231.248 39.8106 230.834 37.9169 230.834 35.7308C230.834 33.5987 231.248 31.7275 232.076 30.1172C232.903 28.5069 234.068 27.2519 235.571 26.3523C237.082 25.4527 238.854 25.0028 240.888 25.0028C242.255 25.0028 243.528 25.2232 244.706 25.6641C245.894 26.0959 246.929 26.7481 247.81 27.6207C248.701 28.4934 249.394 29.5909 249.888 30.9134C250.383 32.2268 250.631 33.7652 250.631 35.5284V37.1072H233.128V33.5447H245.219C245.219 32.7171 245.039 31.9839 244.68 31.3452C244.32 30.7064 243.82 30.2071 243.182 29.8473C242.552 29.4785 241.819 29.294 240.982 29.294C240.109 29.294 239.336 29.4964 238.661 29.9013C237.995 30.2971 237.474 30.8324 237.096 31.5071C236.718 32.1728 236.524 32.915 236.515 33.7337V37.1207C236.515 38.1463 236.704 39.0324 237.082 39.7791C237.469 40.5258 238.013 41.1016 238.715 41.5064C239.417 41.9112 240.249 42.1136 241.211 42.1136C241.85 42.1136 242.435 42.0237 242.966 41.8438C243.497 41.6638 243.951 41.3939 244.329 41.0341C244.706 40.6742 244.994 40.2334 245.192 39.7116L250.509 40.0625C250.239 41.34 249.686 42.4555 248.849 43.4091C248.022 44.3537 246.951 45.0914 245.638 45.6222C244.333 46.1439 242.826 46.4048 241.117 46.4048Z" fill="#C32361"/>
<g clip-path="url(#clip0_105_218)">
<circle cx="32.5" cy="32.5" r="30.6198" fill="#EA4C89" stroke="#C32361" stroke-width="3.76033"/>
<path d="M4.70041 5.37195C25.4766 14.4146 47.6992 39.1682 51.4359 69.8348" stroke="#C32361" stroke-width="3.76033"/>
<path d="M48.2587 0.250732C42.0605 20.6635 28.6083 33.4257 -2.86831 42.348" stroke="#C32361" stroke-width="3.76033"/>
<path d="M68.3574 36.7975C42.9752 33.44 22.4378 42.6673 12.6833 69.0305" stroke="#C32361" stroke-width="3.76033"/>
</g>
<defs>
<clipPath id="clip0_105_218">
<rect width="65" height="65" rx="32.5" fill="white"/>
</clipPath>
</defs>
</svg>
